<?xml version="1.0" encoding="UTF-8" standalone="no"?>
<!-- Created with Inkscape (http://www.inkscape.org/) -->

<svg
   width="80mm"
   height="80mm"
   viewBox="0 0 80 80"
   version="1.1"
   id="svg1"
   xml:space="preserve"
   inkscape:version="1.3.2 (091e20e, 2023-11-25, custom)"
   sodipodi:docname="logo_black.svg"
   xmlns:inkscape="http://www.inkscape.org/namespaces/inkscape"
   xmlns:sodipodi="http://sodipodi.sourceforge.net/DTD/sodipodi-0.dtd"
   xmlns="http://www.w3.org/2000/svg"
   xmlns:svg="http://www.w3.org/2000/svg"><sodipodi:namedview
     id="namedview1"
     pagecolor="#ffffff"
     bordercolor="#111111"
     borderopacity="1"
     inkscape:showpageshadow="0"
     inkscape:pageopacity="0"
     inkscape:pagecheckerboard="1"
     inkscape:deskcolor="#d1d1d1"
     inkscape:document-units="mm"
     inkscape:zoom="1.4841611"
     inkscape:cx="179.22583"
     inkscape:cy="151.93769"
     inkscape:window-width="1920"
     inkscape:window-height="1009"
     inkscape:window-x="-8"
     inkscape:window-y="-8"
     inkscape:window-maximized="1"
     inkscape:current-layer="layer1" /><defs
     id="defs1"><inkscape:path-effect
       effect="bspline"
       id="path-effect3"
       is_visible="true"
       lpeversion="1.3"
       weight="33.333333"
       steps="2"
       helper_size="0"
       apply_no_weight="true"
       apply_with_weight="true"
       only_selected="false"
       uniform="false" /><inkscape:path-effect
       effect="bspline"
       id="path-effect2"
       is_visible="true"
       lpeversion="1.3"
       weight="33.333333"
       steps="2"
       helper_size="0"
       apply_no_weight="true"
       apply_with_weight="true"
       only_selected="false"
       uniform="false" /></defs><g
     inkscape:label="Layer 1"
     inkscape:groupmode="layer"
     id="layer1"
     transform="translate(-9.9999997,-9.9999993)"><path
       style="display:inline;fill:#eeadd6;fill-opacity:1;stroke:#000000;stroke-width:0"
       id="path1"
       sodipodi:type="arc"
       sodipodi:cx="47.244156"
       sodipodi:cy="15.674664"
       sodipodi:rx="2.9438753"
       sodipodi:ry="3.1356642"
       sodipodi:start="5.872756"
       sodipodi:end="5.8600905"
       sodipodi:open="true"
       sodipodi:arc-type="arc"
       d="m 49.943541,14.423524 a 2.9438753,3.1356642 0 0 1 -1.516229,4.12241 2.9438753,3.1356642 0 0 1 -3.875049,-1.601948 2.9438753,3.1356642 0 0 1 1.491689,-4.132554 2.9438753,3.1356642 0 0 1 3.884496,1.575777" /><path
       style="display:inline;fill:#eeadd6;fill-opacity:1;stroke:#000000;stroke-width:0"
       d="m 93.769537,69.807639 c -0.18427,0.04632 -0.552802,0.138945 -0.86895,0.322669 -0.316148,0.183724 -0.579882,0.458522 -0.774131,0.723959 -0.194249,0.265437 -0.318987,0.521478 -0.408936,0.78082 -0.08995,0.259342 -0.145097,0.521954 -0.172672,0.81609 -0.02757,0.294136 -0.02757,0.619778 -0.02232,0.955932 0.0053,0.336154 0.01575,0.682804 0.0105,1.066232 -0.0053,0.383427 -0.02626,0.803609 -0.05253,1.197539 -0.02626,0.39393 -0.05778,0.76159 -0.09979,1.145017 -0.04202,0.383427 -0.09454,0.7826 -0.162822,1.187035 -0.06828,0.404435 -0.152318,0.814114 -0.241609,1.21855 -0.08929,0.404436 -0.183833,0.803609 -0.320396,1.244812 -0.136562,0.441203 -0.315139,0.924412 -0.519984,1.43915 -0.204844,0.514737 -0.435944,1.060973 -0.79142,1.822967 -0.355476,0.761994 -0.835294,1.739675 -1.269887,2.538125 -0.434594,0.79845 -0.82391,1.417573 -1.354787,2.24576 -0.530877,0.828188 -1.203252,1.865341 -1.866425,2.911822 -0.663174,1.04648 -1.317067,2.102164 -1.861768,3.010883 -0.544701,0.908718 -0.980143,1.670361 -1.415694,2.493816 -0.435551,0.823455 -0.871158,1.708623 -1.23881,2.559703 -0.367653,0.85108 -0.667312,1.66798 -0.91525,2.43689 -0.247937,0.76891 -0.44414,1.48979 -0.598178,2.1469 -0.154037,0.65712 -0.265904,1.25044 -0.346525,1.89718 -0.08062,0.64673 -0.12999,1.34682 -0.162104,1.94685 -0.03211,0.60002 -0.04697,1.09993 -0.03496,1.63937 0.012,0.53944 0.05087,1.11835 0.10264,1.58827 0.05177,0.46992 0.116445,0.8308 0.215862,1.30271 0.09942,0.47191 0.233564,1.05479 0.376238,1.53748 0.142674,0.48268 0.293852,0.86509 0.449618,1.22689 0.155766,0.36181 0.3161,0.70296 0.492384,1.05511 0.176285,0.35216 0.368504,0.71529 0.643983,1.15704 0.275479,0.44175 0.634182,0.96206 1.026108,1.44485 0.391926,0.48279 0.817024,0.92799 1.251795,1.34179 0.434771,0.4138 0.879162,0.79615 1.406967,1.19727 0.527804,0.40111 1.138974,0.82096 1.802928,1.18168 0.663953,0.36071 1.38062,0.66225 2.101822,0.90085 0.721203,0.2386 1.446863,0.41423 2.14968,0.53177 0.702817,0.11753 1.38272,0.17696 2.139603,0.16319 0.756882,-0.0138 1.590661,-0.10073 2.359921,-0.24775 0.769259,-0.14702 1.473913,-0.3541 2.127361,-0.59836 0.653449,-0.24427 1.255622,-0.5257 1.801811,-0.83967 0.546188,-0.31396 1.036352,-0.66045 1.513846,-1.01669 0.4775,-0.35625 0.94228,-0.72222 1.41505,-1.17444 0.47278,-0.45221 0.95348,-0.99061 1.39793,-1.55327 0.44445,-0.56266 0.8526,-1.14952 1.17835,-1.70011 0.32575,-0.55058 0.56907,-1.06483 0.78861,-1.52878 0.21954,-0.46395 0.41528,-0.87756 0.54899,-1.28889 0.13371,-0.41133 0.20536,-0.82029 0.21237,-1.25051 0.007,-0.43023 -0.0506,-0.88168 -0.15809,-1.23831 -0.10748,-0.35663 -0.26481,-0.61839 -0.44027,-0.83929 -0.17547,-0.22089 -0.36904,-0.40089 -0.5971,-0.56516 -0.22805,-0.16428 -0.49057,-0.31284 -0.79512,-0.39455 -0.30455,-0.0817 -0.65111,-0.0966 -0.9321,-0.0854 -0.28098,0.0111 -0.4964,0.0483 -0.71182,0.12256 -0.21541,0.0743 -0.43081,0.1857 -0.62394,0.32312 -0.19313,0.13742 -0.36397,0.30083 -0.51625,0.49024 -0.15227,0.18942 -0.28597,0.40483 -0.381,0.58135 -0.095,0.17653 -0.15137,0.31417 -0.20708,0.48502 -0.0557,0.17086 -0.11078,0.37487 -0.2126,0.65889 -0.10182,0.28402 -0.250374,0.64798 -0.488074,1.07138 -0.2377,0.4234 -0.564521,0.9062 -0.89507,1.3296 -0.330548,0.4234 -0.664798,0.78736 -0.995346,1.09563 -0.330549,0.30826 -0.657375,0.56081 -0.99535,0.79479 -0.337975,0.23398 -0.687084,0.44939 -1.110484,0.66109 -0.4234,0.2117 -0.921066,0.41968 -1.392747,0.56081 -0.471682,0.14113 -0.917348,0.21541 -1.455883,0.24512 -0.538535,0.0297 -1.169898,0.0148 -1.771568,-0.0817 -0.60167,-0.0966 -1.173616,-0.27484 -1.671293,-0.47911 -0.497677,-0.20427 -0.921067,-0.43453 -1.344464,-0.70566 -0.423397,-0.27112 -0.84678,-0.58309 -1.199836,-0.8822 -0.353056,-0.29911 -0.63576,-0.58534 -0.929171,-0.93818 -0.293411,-0.35283 -0.597503,-0.77224 -0.883258,-1.27908 -0.285755,-0.50683 -0.553158,-1.10106 -0.746285,-1.68044 -0.193127,-0.57939 -0.311971,-1.1439 -0.389966,-1.67501 -0.07799,-0.5311 -0.115135,-1.02877 -0.107706,-1.5933 0.0074,-0.56453 0.05942,-1.1959 0.107706,-1.66758 0.04828,-0.47167 0.09285,-0.78364 0.189415,-1.25533 0.09656,-0.47168 0.24512,-1.10304 0.431273,-1.7482 0.186152,-0.64515 0.409884,-1.30404 0.703293,-2.01714 0.293409,-0.71309 0.656471,-1.48033 0.991372,-2.14315 0.3349,-0.662826 0.641609,-1.221175 1.00495,-1.844275 0.36334,-0.623101 0.783268,-1.310876 1.204456,-1.991824 0.421189,-0.680947 0.843589,-1.354986 1.305407,-2.090105 0.461818,-0.735119 0.963,-1.531232 1.426619,-2.277571 0.46362,-0.746339 0.889624,-1.442816 1.48256,-2.508487 0.592936,-1.065671 1.352736,-2.500411 1.907894,-3.688909 0.555158,-1.188499 0.90561,-2.130616 1.192494,-3.015727 0.286884,-0.885112 0.510164,-1.71311 0.673583,-2.532193 0.163419,-0.819083 0.266958,-1.629166 0.344727,-2.364768 0.07777,-0.735601 0.129764,-1.396676 0.166904,-2.005776 0.03714,-0.6091 0.05942,-1.166185 0.07407,-1.711677 0.01465,-0.545492 0.02167,-1.079344 0.0031,-1.480462 -0.01857,-0.401118 -0.06273,-0.669457 -0.153515,-0.943374 -0.09079,-0.273916 -0.2282,-0.553381 -0.413904,-0.804546 -0.185703,-0.251165 -0.419673,-0.473992 -0.618378,-0.627664 -0.198705,-0.153671 -0.362114,-0.23816 -0.518103,-0.302691 -0.155989,-0.06453 -0.304548,-0.109097 -0.461588,-0.135069 -0.15704,-0.02597 -0.322556,-0.03335 -0.477738,-0.03865 -0.155182,-0.0053 -0.300027,-0.0085 -0.372448,-0.01015 -0.07242,-0.0016 -0.07242,-0.0016 -0.256689,0.04469 z"
       id="path2"
       inkscape:path-effect="#path-effect2"
       inkscape:original-d="m 93.953806,69.761324 c -0.368539,0.09263 -0.737071,0.18526 -1.105617,0.277893 -0.26375,0.274815 -0.527484,0.549613 -0.791235,0.824428 -0.124747,0.256059 -0.249485,0.5121 -0.374232,0.768159 -0.05515,0.262625 -0.110299,0.525237 -0.165449,0.787858 0,0.325651 0,0.651293 0,0.976939 0.0105,0.346662 0.02101,0.693312 0.03151,1.039969 -0.02101,0.420198 -0.04202,0.84038 -0.06303,1.260567 -0.03151,0.367673 -0.06303,0.735333 -0.09454,1.102998 -0.05252,0.39919 -0.105048,0.798362 -0.15757,1.197541 -0.08404,0.409691 -0.168077,0.81937 -0.252114,1.229053 -0.09454,0.39919 -0.189084,0.798362 -0.283628,1.197541 -0.178583,0.483227 -0.357161,0.966436 -0.535741,1.449655 -0.231108,0.546256 -0.462209,1.092491 -0.693312,1.638739 -0.479848,0.977741 -0.959666,1.955422 -1.439513,2.933162 -0.38934,0.61916 -0.778656,1.238283 -1.167996,1.857443 -0.672414,1.037215 -1.344789,2.074368 -2.017203,3.111582 -0.653933,1.055747 -1.307826,2.111431 -1.961759,3.167179 -0.435469,0.761689 -0.870911,1.523332 -1.30638,2.285021 -0.435633,0.885221 -0.871239,1.770389 -1.306872,2.655609 -0.299673,0.81694 -0.599332,1.63384 -0.899002,2.45077 -0.196207,0.72089 -0.392407,1.44177 -0.588613,2.16266 -0.111871,0.59334 -0.223738,1.18666 -0.335609,1.78001 -0.04937,0.70012 -0.09874,1.40021 -0.14811,2.10033 -0.01486,0.49993 -0.02971,0.99984 -0.04457,1.49978 0.03887,0.57894 0.07773,1.15785 0.116596,1.73679 0.06468,0.3609 0.12935,0.72178 0.194028,1.08268 0.134157,0.58292 0.268306,1.1658 0.402463,1.74873 0.151189,0.38244 0.302368,0.76485 0.453556,1.14729 0.160341,0.34117 0.320675,0.68232 0.481016,1.02348 0.192229,0.36315 0.38445,0.72628 0.576679,1.08943 0.358725,0.52035 0.71743,1.04066 1.076154,1.561 0.425127,0.44524 0.850229,0.89044 1.275357,1.33568 0.444414,0.38236 0.888802,0.76471 1.333213,1.14707 0.6112,0.41987 1.222372,0.83972 1.833575,1.2596 0.716702,0.30155 1.433367,0.60309 2.150071,0.90464 0.725701,0.17565 1.451363,0.35128 2.177062,0.52693 0.679936,0.0594 1.359837,0.11885 2.039772,0.17827 0.833826,-0.087 1.667609,-0.17392 2.501437,-0.26088 0.704692,-0.20708 1.409344,-0.41416 2.114035,-0.62124 0.602205,-0.28145 1.204378,-0.56288 1.806581,-0.84432 0.490179,-0.34649 0.980339,-0.69298 1.470514,-1.03947 0.46482,-0.366 0.9296,-0.73197 1.39442,-1.09797 0.48073,-0.53843 0.96143,-1.07683 1.44216,-1.61526 0.40817,-0.58689 0.81632,-1.17375 1.22449,-1.76065 0.24333,-0.51427 0.48665,-1.02852 0.72997,-1.54277 0.19576,-0.41365 0.3915,-0.82726 0.58726,-1.24091 0.0717,-0.409 0.14331,-0.81797 0.21496,-1.22696 -0.0576,-0.45146 -0.11524,-0.90291 -0.17287,-1.35438 -0.15734,-0.26179 -0.31467,-0.52355 -0.47201,-0.78534 -0.19359,-0.18 -0.38716,-0.36 -0.58074,-0.53999 -0.26253,-0.14856 -0.52505,-0.29712 -0.78758,-0.44568 -0.34657,-0.0149 -0.69313,-0.0297 -1.0397,-0.0446 -0.21541,0.0371 -0.43082,0.0743 -0.64623,0.11142 -0.21542,0.11142 -0.43082,0.22284 -0.64624,0.33426 -0.17084,0.16342 -0.34168,0.32683 -0.51252,0.49024 -0.13371,0.21542 -0.26741,0.43083 -0.40112,0.64624 -0.0563,0.13766 -0.11269,0.27528 -0.16904,0.41293 -0.0551,0.20405 -0.11014,0.40807 -0.16521,0.61213 -0.14857,0.36398 -0.297127,0.72794 -0.445685,1.09191 -0.326837,0.48283 -0.653661,0.96563 -0.980493,1.44845 -0.334264,0.36398 -0.668517,0.72794 -1.002776,1.09192 -0.326837,0.25255 -0.653661,0.5051 -0.980493,0.75765 -0.34912,0.21541 -0.698227,0.43082 -1.047342,0.64623 -0.497684,0.20799 -0.99535,0.41597 -1.493023,0.62395 -0.445688,0.0743 -0.891357,0.14856 -1.337035,0.22284 -0.631391,-0.0149 -1.262756,-0.0297 -1.894133,-0.0446 -0.571963,-0.17827 -1.143908,-0.35654 -1.71586,-0.53481 -0.423402,-0.23027 -0.846789,-0.46054 -1.270183,-0.6908 -0.423405,-0.31198 -0.846788,-0.62395 -1.270182,-0.93593 -0.282719,-0.28624 -0.565422,-0.57247 -0.848142,-0.85872 -0.304103,-0.41942 -0.608193,-0.83883 -0.91229,-1.25825 -0.267412,-0.59425 -0.534813,-1.18848 -0.802219,-1.78271 -0.118851,-0.56454 -0.237697,-1.12905 -0.356542,-1.69358 -0.03714,-0.49768 -0.07428,-0.99535 -0.111422,-1.49302 0.052,-0.63139 0.103992,-1.26276 0.155988,-1.89413 0.04457,-0.31198 0.08914,-0.62395 0.133705,-0.93593 0.148561,-0.63139 0.297119,-1.26275 0.445677,-1.89413 0.223746,-0.65893 0.447478,-1.31782 0.671222,-1.97675 0.363076,-0.76726 0.726137,-1.5345 1.089207,-2.30176 0.30673,-0.558386 0.613438,-1.116735 0.920167,-1.67512 0.419952,-0.687816 0.83988,-1.375591 1.259832,-2.063407 0.422425,-0.674079 0.844825,-1.348118 1.26725,-2.022197 0.501211,-0.796159 1.002393,-1.592272 1.503604,-2.388432 0.426028,-0.696518 0.852032,-1.392995 1.27806,-2.089513 0.759844,-1.434824 1.519644,-2.869564 2.279488,-4.304388 0.350472,-0.942173 0.700924,-1.88429 1.051397,-2.826464 0.223294,-0.828049 0.446575,-1.656047 0.66987,-2.484096 0.103543,-0.810117 0.207082,-1.6202 0.310623,-2.430299 0.052,-0.661104 0.103992,-1.322179 0.155988,-1.983269 0.02228,-0.55711 0.04457,-1.114195 0.06685,-1.671294 0.007,-0.533885 0.01404,-1.067737 0.02105,-1.601621 -0.04416,-0.268352 -0.08831,-0.536692 -0.132472,-0.80504 -0.13742,-0.279484 -0.274832,-0.558949 -0.412252,-0.838434 -0.233987,-0.222844 -0.467956,-0.445672 -0.701943,-0.668518 -0.163421,-0.0845 -0.326832,-0.168986 -0.490248,-0.253479 -0.148561,-0.04457 -0.29712,-0.08914 -0.445678,-0.133702 -0.165522,-0.0074 -0.331039,-0.01475 -0.49656,-0.02213 -0.144844,-0.0032 -0.289687,-0.0065 -0.434531,-0.0097 z"
       sodipodi:nodetypes="ccccccccccccccccccccccccccccccccccccccccccccccccccccccccccccccccccccccccccccccccccccccccccccccccccc"
       inkscape:label="path2"
       transform="translate(-47.369945,-46.766926)" /><path
       style="display:inline;fill:#eeadd6;fill-opacity:1;fill-rule:nonzero;stroke:#000000;stroke-width:0"
       d="m 101.78292,85.132113 c -0.11037,0.01135 -0.33112,0.03406 -0.53727,0.08644 -0.20615,0.05238 -0.39771,0.134428 -0.57227,0.226664 -0.17456,0.09223 -0.33213,0.194656 -0.48445,0.318088 -0.15232,0.123432 -0.299381,0.267869 -0.435944,0.43726 -0.136562,0.169391 -0.262616,0.363724 -0.35322,0.550185 -0.0906,0.186461 -0.145753,0.365039 -0.183833,0.537056 -0.03808,0.172016 -0.05909,0.337462 -0.09848,0.530489 -0.03939,0.193028 -0.09717,0.41362 -0.151006,0.643415 -0.05384,0.229795 -0.103733,0.468771 -0.147065,0.661797 -0.04333,0.193026 -0.0801,0.34009 -0.166765,0.643418 -0.08666,0.303329 -0.223223,0.762902 -0.367665,1.205419 -0.144442,0.442517 -0.296759,0.867951 -0.445139,1.230366 -0.14838,0.362416 -0.292817,0.661796 -0.466147,1.008457 -0.17333,0.346661 -0.375543,0.740581 -0.565943,1.059664 -0.1904,0.319083 -0.368977,0.563312 -0.651296,0.940175 -0.282318,0.376863 -0.668359,0.886332 -0.979565,1.286829 -0.311205,0.400497 -0.547557,0.691996 -0.762906,0.953304 -0.215349,0.261309 -0.409684,0.492408 -0.597457,0.718262 -0.187774,0.225853 -0.368977,0.446449 -0.542307,0.665738 -0.173329,0.219288 -0.338775,0.437257 -0.502913,0.65392 -0.164138,0.216662 -0.326959,0.432006 -0.537057,0.714324 -0.210097,0.28232 -0.467456,0.63159 -0.726139,1.00583 -0.258684,0.37424 -0.51867,0.77341 -0.753716,1.15552 -0.235047,0.38212 -0.445136,0.74715 -0.638162,1.12139 -0.193026,0.37423 -0.368975,0.75764 -0.502912,1.09117 -0.133937,0.33353 -0.225851,0.61715 -0.320395,0.93098 -0.09455,0.31384 -0.191711,0.65786 -0.274437,1.00846 -0.08273,0.3506 -0.151006,0.70775 -0.198277,1.07674 -0.04727,0.36898 -0.07353,0.74977 -0.08798,1.14501 -0.01445,0.39525 -0.01708,0.80492 0.0052,1.13451 0.02232,0.32959 0.06959,0.57907 0.139185,0.78523 0.0696,0.20616 0.161511,0.36898 0.257368,0.51736 0.09586,0.14838 0.195647,0.28231 0.312513,0.411 0.116867,0.12868 0.250801,0.25211 0.407067,0.36241 0.156266,0.11031 0.334834,0.20746 0.493721,0.27969 0.158888,0.0722 0.298053,0.11948 0.450379,0.15232 0.152326,0.0328 0.317773,0.0512 0.481914,0.0591 0.16414,0.008 0.326952,0.005 0.506845,-0.0185 0.179893,-0.0237 0.376865,-0.0683 0.547571,-0.12476 0.170706,-0.0565 0.315135,-0.12474 0.463517,-0.20878 0.148381,-0.084 0.300699,-0.18383 0.433322,-0.29414 0.132623,-0.1103 0.245546,-0.2311 0.350594,-0.36241 0.105047,-0.13131 0.202212,-0.27312 0.283625,-0.42938 0.08141,-0.15626 0.147066,-0.32696 0.19959,-0.49897 0.05252,-0.17202 0.09192,-0.34535 0.116865,-0.53443 0.02495,-0.18909 0.03545,-0.39393 0.04333,-0.58433 0.0079,-0.1904 0.01314,-0.36635 0.02627,-0.55544 0.01313,-0.18909 0.03414,-0.3913 0.06697,-0.58958 0.03283,-0.19828 0.07747,-0.39261 0.11949,-0.55806 0.04202,-0.16545 0.08141,-0.30201 0.166764,-0.53049 0.08535,-0.22848 0.216658,-0.54887 0.351909,-0.82988 0.13525,-0.281 0.274439,-0.52261 0.414941,-0.74715 0.140503,-0.22454 0.28231,-0.432 0.45958,-0.68281 0.17727,-0.2508 0.389983,-0.54492 0.626343,-0.86532 0.236361,-0.3204 0.496347,-0.66705 0.752403,-0.99664 0.256056,-0.32959 0.508166,-0.6421 0.79311,-0.99532 0.284944,-0.35323 0.602706,-0.74715 0.907346,-1.12926 0.304641,-0.38212 0.596139,-0.7524 0.852198,-1.083307 0.256063,-0.330905 0.476653,-0.622402 0.678873,-0.892902 0.20222,-0.2705 0.38605,-0.519983 0.53837,-0.737955 0.15231,-0.217973 0.27312,-0.404433 0.37817,-0.572511 0.10504,-0.168079 0.19433,-0.317765 0.27443,-0.458919 0.0801,-0.141155 0.15101,-0.273784 0.20418,-0.374228 0.0532,-0.100443 0.0886,-0.168749 0.11618,-0.219299 0.0276,-0.05055 0.0473,-0.08342 0.0637,-0.0985 0.0164,-0.01508 0.0296,-0.01243 0.0414,6.96e-4 0.0118,0.01313 0.0223,0.03677 0.0473,0.08799 0.025,0.05122 0.0643,0.130001 0.10504,0.221913 0.0407,0.09191 0.0827,0.196952 0.14707,0.330902 0.0644,0.133949 0.151,0.296755 0.2311,0.450381 0.0801,0.153626 0.15364,0.298076 0.24424,0.460901 0.0906,0.162825 0.19827,0.344027 0.30464,0.527864 0.10636,0.183837 0.2114,0.37029 0.32302,0.563317 0.11161,0.193028 0.22978,0.392616 0.38867,0.653924 0.15888,0.261304 0.35847,0.584324 0.56331,0.911284 0.20485,0.32696 0.41494,0.65786 0.63161,1.00714 0.21666,0.34929 0.43988,0.71695 0.61583,1.00977 0.17596,0.29282 0.30464,0.51079 0.42807,0.69987 0.12343,0.18909 0.24161,0.34929 0.38737,0.57646 0.14575,0.22717 0.31908,0.52129 0.4819,0.79311 0.16283,0.27181 0.31514,0.52129 0.55938,0.93755 0.24424,0.41625 0.58038,0.99925 0.85351,1.49823 0.27312,0.49898 0.48322,0.91391 0.65786,1.2737 0.17464,0.35979 0.31382,0.66442 0.47665,1.07543 0.16283,0.411 0.34928,0.92835 0.50423,1.38924 0.15494,0.4609 0.27837,0.86533 0.39655,1.33279 0.11818,0.46747 0.2311,0.99795 0.3112,1.44047 0.0801,0.44251 0.12737,0.79703 0.15889,1.26319 0.0315,0.46616 0.0473,1.0439 0.0131,1.64793 -0.0341,0.60403 -0.11817,1.2343 -0.2508,1.84096 -0.13262,0.60665 -0.31382,1.18965 -0.52392,1.73591 -0.2101,0.54625 -0.44908,1.05572 -0.75766,1.59409 -0.30858,0.53837 -0.68674,1.10562 -1.06623,1.60328 -0.37948,0.49767 -0.76027,0.92573 -1.18966,1.34986 -0.42939,0.42414 -0.90734,0.84432 -1.36693,1.20017 -0.45959,0.35585 -0.90078,0.64736 -1.30915,0.89422 -0.40838,0.24686 -0.78391,0.44907 -1.22906,0.63553 -0.44514,0.18646 -0.95986,0.35716 -1.38924,0.48453 -0.42938,0.12737 -0.77341,0.2114 -1.12139,0.27706 -0.34797,0.0657 -0.69987,0.11293 -0.974314,0.1602 -0.274444,0.0473 -0.471389,0.0945 -0.656543,0.15757 -0.185154,0.063 -0.358472,0.14181 -0.506853,0.23898 -0.148381,0.0972 -0.271811,0.21272 -0.41494,0.36241 -0.14313,0.1497 -0.30595,0.33353 -0.421502,0.51342 -0.115551,0.1799 -0.18383,0.35585 -0.253424,0.55019 -0.06959,0.19434 -0.140502,0.40706 -0.179894,0.6014 -0.03939,0.19434 -0.04727,0.37029 -0.04727,0.49767 10e-7,0.12737 0.0079,0.20614 0.01969,0.30069 0.01182,0.0945 0.02757,0.20484 0.05121,0.3309 0.02363,0.12605 0.05515,0.26787 0.116866,0.42807 0.06172,0.1602 0.153629,0.33877 0.241607,0.49765 0.08798,0.15889 0.172016,0.29808 0.298074,0.44252 0.126058,0.14444 0.294132,0.29413 0.447772,0.41231 0.15364,0.11818 0.29281,0.20484 0.456954,0.28625 0.164145,0.0814 0.353213,0.15757 0.634219,0.1904 0.281006,0.0328 0.653915,0.0223 1.018955,-0.0131 0.36505,-0.0354 0.7222,-0.0959 1.07805,-0.16414 0.35586,-0.0683 0.71038,-0.14444 1.12269,-0.24949 0.41232,-0.10505 0.8824,-0.23898 1.34855,-0.4018 0.46615,-0.16283 0.92835,-0.35454 1.39844,-0.57383 0.4701,-0.21929 0.94805,-0.46614 1.37613,-0.70512 0.42807,-0.23899 0.80623,-0.47009 1.18572,-0.71826 0.37948,-0.24818 0.76027,-0.51342 1.15026,-0.81938 0.39,-0.30595 0.78917,-0.6526 1.14765,-0.97431 0.35847,-0.32171 0.67624,-0.61846 0.97562,-0.92704 0.29939,-0.30858 0.58039,-0.62897 0.83513,-0.92311 0.25474,-0.29413 0.48322,-0.562 0.70907,-0.87321 0.22585,-0.3112 0.44908,-0.66573 0.68937,-1.0531 0.2403,-0.38736 0.49766,-0.80754 0.73665,-1.23561 0.23899,-0.42808 0.45958,-0.86402 0.66049,-1.30128 0.2009,-0.43726 0.3821,-0.87583 0.52129,-1.26714 0.13919,-0.39131 0.23635,-0.73532 0.3309,-1.07016 0.0945,-0.33484 0.18645,-0.66048 0.25605,-0.95199 0.0696,-0.29151 0.11686,-0.54886 0.16282,-0.80098 0.046,-0.25212 0.0906,-0.49898 0.13,-0.81938 0.0394,-0.3204 0.0735,-0.71432 0.0919,-1.09118 0.0184,-0.37686 0.0211,-0.73664 0.029,-1.07673 0.008,-0.3401 0.021,-0.66049 0.007,-0.99402 -0.0144,-0.33353 -0.0565,-0.68017 -0.0958,-1.02814 -0.0394,-0.34798 -0.0762,-0.69726 -0.13656,-1.08068 -0.0604,-0.38342 -0.14444,-0.80099 -0.22586,-1.21724 -0.0814,-0.41625 -0.16019,-0.83118 -0.26393,-1.24481 -0.10373,-0.41363 -0.23241,-0.82593 -0.37029,-1.24744 -0.13787,-0.42151 -0.28493,-0.85219 -0.43988,-1.27107 -0.15495,-0.41888 -0.31777,-0.82593 -0.52261,-1.29077 -0.20485,-0.46484 -0.45171,-0.98744 -0.67231,-1.4444 -0.2206,-0.45696 -0.41493,-0.84826 -0.68149,-1.3328 -0.26656,-0.48453 -0.60534,-1.06228 -0.90341,-1.55863 -0.29807,-0.49635 -0.55543,-0.91128 -0.89422,-1.46542 -0.33878,-0.55413 -0.75896,-1.247426 -1.10299,-1.805495 -0.34404,-0.55807 -0.6119,-0.980877 -0.86402,-1.387938 -0.25211,-0.407062 -0.48847,-0.79836 -0.71432,-1.183097 -0.22585,-0.384738 -0.4412,-0.762903 -0.63948,-1.116127 -0.19828,-0.353224 -0.37948,-0.681491 -0.53837,-0.976939 -0.15888,-0.295449 -0.29544,-0.558063 -0.4819,-0.933612 -0.18646,-0.375549 -0.42281,-0.864009 -0.6421,-1.352484 -0.21929,-0.488476 -0.4215,-0.976936 -0.61715,-1.485109 -0.19566,-0.508173 -0.38474,-1.036025 -0.5213,-1.44702 -0.13656,-0.410995 -0.2206,-0.705132 -0.2902,-0.948063 -0.0696,-0.242931 -0.12474,-0.434625 -0.17464,-0.610575 -0.0499,-0.175951 -0.0945,-0.336159 -0.13918,-0.487172 -0.0447,-0.151013 -0.0893,-0.292812 -0.1497,-0.439886 -0.0604,-0.147074 -0.13656,-0.299374 -0.22283,-0.438106 -0.0863,-0.138732 -0.18268,-0.263895 -0.28207,-0.375193 -0.0994,-0.111298 -0.20174,-0.208718 -0.3131,-0.302472 -0.11135,-0.09375 -0.23166,-0.183802 -0.36733,-0.264222 -0.13566,-0.08042 -0.28665,-0.151193 -0.41861,-0.202338 -0.13197,-0.05115 -0.24489,-0.08266 -0.38304,-0.102922 -0.13816,-0.02026 -0.30154,-0.02928 -0.42488,-0.03113 -0.12334,-0.0019 -0.20674,0.0034 -0.21962,0.0038 -0.0129,3.33e-4 0.0447,-0.0043 0.0814,-0.0076 0.0367,-0.0033 0.0525,-0.0051 0.0603,-0.0061 0.008,-9.3e-4 0.008,-9.01e-4 -0.10247,0.01045 z"
       id="path3"
       inkscape:path-effect="#path-effect3"
       inkscape:original-d="m 101.89329,85.12076 c -0.22074,0.02271 -0.44149,0.04541 -0.66224,0.06812 -0.19155,0.08205 -0.38311,0.164097 -0.57466,0.246146 -0.15757,0.102425 -0.31514,0.204843 -0.47271,0.307266 -0.14707,0.144441 -0.29413,0.28888 -0.441196,0.433318 -0.126061,0.194342 -0.252114,0.388676 -0.378172,0.583015 -0.05515,0.178583 -0.1103,0.357161 -0.165449,0.535742 -0.02101,0.165452 -0.04202,0.330898 -0.06303,0.496347 -0.05778,0.220605 -0.115552,0.441198 -0.173329,0.6618 -0.0499,0.238988 -0.09979,0.477965 -0.149691,0.716947 -0.03677,0.147068 -0.07354,0.294132 -0.110302,0.4412 -0.136562,0.45959 -0.273121,0.919163 -0.409683,1.378747 -0.152321,0.42545 -0.304639,0.850884 -0.456957,1.276323 -0.144441,0.299392 -0.28888,0.598771 -0.433318,0.898158 -0.202222,0.393935 -0.404435,0.787855 -0.60665,1.181782 -0.178584,0.24424 -0.357161,0.488469 -0.535742,0.732705 -0.386056,0.50949 -0.772099,1.018958 -1.158147,1.52844 -0.236361,0.291513 -0.472713,0.583012 -0.70907,0.87452 -0.194342,0.231108 -0.388676,0.462208 -0.583012,0.693311 -0.181211,0.220604 -0.362413,0.441201 -0.543621,0.6618 -0.165452,0.217977 -0.330899,0.435946 -0.496348,0.65392 -0.162827,0.21535 -0.325649,0.430694 -0.488471,0.646043 -0.257371,0.34929 -0.514734,0.69856 -0.772099,1.04785 -0.259996,0.39919 -0.519983,0.79836 -0.779976,1.19754 -0.2101,0.36505 -0.42019,0.73008 -0.630285,1.09512 -0.175959,0.38343 -0.351909,0.76684 -0.527862,1.15027 -0.09192,0.28363 -0.183833,0.56725 -0.275749,0.85088 -0.09717,0.34404 -0.194339,0.68806 -0.291507,1.03209 -0.06828,0.35717 -0.136563,0.71432 -0.204844,1.07148 -0.02627,0.38081 -0.05252,0.7616 -0.07878,1.14239 -0.0026,0.4097 -0.0052,0.81937 -0.0079,1.22906 0.04727,0.24949 0.09454,0.49897 0.141814,0.74846 0.09192,0.16283 0.183832,0.32565 0.275751,0.48847 0.0998,0.13394 0.199589,0.26787 0.299384,0.40181 0.133938,0.12343 0.26787,0.24686 0.401807,0.37029 0.178583,0.0972 0.357161,0.19434 0.535742,0.2915 0.139189,0.0473 0.278376,0.0945 0.417562,0.14182 0.165452,0.0184 0.330899,0.0368 0.496348,0.0552 0.162827,-0.003 0.325649,-0.005 0.488471,-0.008 0.196969,-0.0446 0.393928,-0.0893 0.590892,-0.13393 0.144444,-0.0683 0.28888,-0.13656 0.433321,-0.20484 0.152321,-0.0998 0.304636,-0.1996 0.456957,-0.29939 0.112926,-0.12081 0.22585,-0.24161 0.338777,-0.36241 0.09717,-0.14182 0.194337,-0.28363 0.291505,-0.42545 0.06566,-0.1707 0.13131,-0.3414 0.196964,-0.5121 0.03939,-0.17333 0.07878,-0.34666 0.118179,-0.51999 0.0105,-0.20484 0.02101,-0.40968 0.03151,-0.61452 0.0052,-0.17596 0.0105,-0.35191 0.01577,-0.52787 0.02101,-0.20222 0.04202,-0.40443 0.06303,-0.60664 0.04465,-0.19435 0.08929,-0.38868 0.133935,-0.58302 0.03939,-0.13656 0.07879,-0.27312 0.118179,-0.40968 0.131312,-0.3204 0.26262,-0.64079 0.393927,-0.96119 0.139192,-0.24161 0.278376,-0.48322 0.417566,-0.72482 0.141816,-0.20748 0.283625,-0.41494 0.425439,-0.62241 0.212728,-0.29414 0.425442,-0.58826 0.638165,-0.8824 0.259998,-0.34666 0.519983,-0.69331 0.779975,-1.03997 0.252119,-0.31252 0.504227,-0.62503 0.756341,-0.93754 0.317775,-0.39394 0.635537,-0.78786 0.953307,-1.18179 0.291512,-0.3703 0.583012,-0.74058 0.874519,-1.110876 0.220613,-0.291513 0.441203,-0.583012 0.661803,-0.87452 0.18384,-0.249491 0.36767,-0.498975 0.5515,-0.748461 0.1208,-0.186462 0.24161,-0.372919 0.36241,-0.559377 0.0893,-0.149696 0.17858,-0.299386 0.26787,-0.44908 0.0709,-0.132618 0.14182,-0.265244 0.21273,-0.397866 0.0354,-0.06828 0.0709,-0.13656 0.10631,-0.204842 0.0197,-0.03283 0.0394,-0.06571 0.0591,-0.09848 0.0131,0.0026 0.0263,0.0052 0.0394,0.0079 0.0105,0.02363 0.021,0.04727 0.0315,0.07091 0.0394,0.07879 0.0788,0.157572 0.11818,0.236357 0.042,0.105051 0.084,0.210096 0.12605,0.315143 0.0867,0.162827 0.17333,0.325647 0.26,0.488471 0.0735,0.144441 0.14706,0.28888 0.2206,0.433319 0.10767,0.18121 0.21534,0.362413 0.32302,0.543621 0.10505,0.186462 0.21009,0.372917 0.31514,0.559376 0.11818,0.199594 0.23636,0.39918 0.35453,0.598771 0.1996,0.323024 0.39918,0.646044 0.59877,0.969064 0.2101,0.3309 0.42019,0.6618 0.63029,0.9927 0.22323,0.36767 0.44645,0.73533 0.66967,1.10299 0.12869,0.21798 0.25737,0.43595 0.38606,0.65392 0.11817,0.1602 0.23635,0.3204 0.35453,0.4806 0.17333,0.29414 0.34666,0.58826 0.51998,0.88239 0.15233,0.2495 0.30464,0.49898 0.45696,0.74847 0.33616,0.58302 0.6723,1.16602 1.00846,1.74904 0.21009,0.41494 0.42019,0.82987 0.63028,1.24481 0.13919,0.30464 0.27837,0.60927 0.41756,0.91391 0.18647,0.51737 0.37292,1.03472 0.55938,1.55207 0.12343,0.40444 0.24686,0.80887 0.37029,1.2133 0.11293,0.5305 0.22585,1.06098 0.33878,1.59147 0.0473,0.35454 0.0945,0.70907 0.14181,1.0636 0.0158,0.57778 0.0315,1.15552 0.0473,1.73329 -0.084,0.63029 -0.16807,1.26056 -0.25211,1.89085 -0.18121,0.58302 -0.36241,1.16602 -0.54362,1.74904 -0.23899,0.50949 -0.47796,1.01896 -0.71695,1.52844 -0.37818,0.56726 -0.75634,1.13451 -1.13451,1.70176 -0.3808,0.42808 -0.76159,0.85614 -1.14239,1.28421 -0.47798,0.4202 -0.95593,0.84038 -1.4339,1.26057 -0.44121,0.29151 -0.8824,0.58301 -1.32359,0.87452 -0.37556,0.20222 -0.75109,0.40443 -1.12664,0.60664 -0.51474,0.17071 -1.02946,0.34141 -1.54419,0.51211 -0.34404,0.084 -0.68806,0.16808 -1.03209,0.25211 -0.35192,0.0473 -0.703826,0.0945 -1.055732,0.14182 -0.196969,0.0473 -0.39393,0.0945 -0.590894,0.14181 -0.173331,0.0788 -0.346654,0.15757 -0.519983,0.23636 -0.123433,0.11555 -0.246862,0.2311 -0.370292,0.34665 -0.162828,0.18384 -0.325647,0.36767 -0.488471,0.5515 -0.06828,0.17596 -0.136562,0.35191 -0.204841,0.52787 -0.07091,0.21272 -0.141814,0.42544 -0.212722,0.63816 -0.0079,0.17596 -0.01577,0.35191 -0.02363,0.52786 0.0079,0.0788 0.01577,0.15757 0.02363,0.23636 0.01577,0.1103 0.03151,0.2206 0.04727,0.3309 0.03152,0.14181 0.06303,0.28363 0.09454,0.42544 0.09192,0.17859 0.183832,0.35716 0.275749,0.53574 0.08404,0.13919 0.168076,0.27838 0.252113,0.41756 0.168079,0.1497 0.336153,0.29939 0.50423,0.44908 0.139189,0.0867 0.278373,0.17333 0.417563,0.25999 0.189087,0.0762 0.378169,0.15232 0.567256,0.22848 0.372925,-0.0105 0.745834,-0.021 1.118754,-0.0315 0.35717,-0.0604 0.71432,-0.12081 1.07148,-0.18121 0.35454,-0.0762 0.70907,-0.15232 1.0636,-0.22848 0.4701,-0.13393 0.94018,-0.26787 1.41027,-0.4018 0.46221,-0.19172 0.92441,-0.38343 1.38662,-0.57514 0.47798,-0.24686 0.95593,-0.49372 1.4339,-0.74058 0.37818,-0.23111 0.75634,-0.46221 1.13451,-0.69331 0.3808,-0.26525 0.76159,-0.53049 1.14239,-0.79574 0.39919,-0.34666 0.79836,-0.69331 1.19754,-1.03997 0.31777,-0.29676 0.63554,-0.59351 0.95331,-0.89027 0.281,-0.3204 0.562,-0.64079 0.843,-0.96119 0.22848,-0.26787 0.45696,-0.53574 0.68543,-0.80361 0.22323,-0.35454 0.44646,-0.70907 0.66968,-1.0636 0.25737,-0.4202 0.51473,-0.84038 0.7721,-1.26057 0.2206,-0.43596 0.4412,-0.8719 0.6618,-1.30784 0.18121,-0.43858 0.36241,-0.87715 0.54362,-1.31572 0.0972,-0.34404 0.19434,-0.68806 0.2915,-1.03209 0.0919,-0.32565 0.18384,-0.65129 0.27575,-0.97694 0.0473,-0.25737 0.0945,-0.51473 0.14182,-0.7721 0.0446,-0.24687 0.0893,-0.49372 0.13393,-0.74058 0.0341,-0.39394 0.0683,-0.78786 0.10242,-1.18179 0.003,-0.35979 0.005,-0.71957 0.008,-1.07936 0.0131,-0.3204 0.0263,-0.64079 0.0394,-0.96118 -0.042,-0.34667 -0.084,-0.69331 -0.12606,-1.03997 -0.0368,-0.34929 -0.0735,-0.69857 -0.1103,-1.04785 -0.084,-0.41757 -0.16807,-0.83513 -0.25211,-1.25269 -0.0788,-0.41494 -0.15757,-0.82987 -0.23636,-1.24481 -0.12868,-0.41232 -0.25736,-0.82462 -0.38604,-1.23693 -0.14707,-0.43071 -0.29414,-0.86139 -0.4412,-1.29209 -0.16283,-0.40706 -0.32565,-0.81411 -0.48847,-1.22117 -0.24687,-0.52262 -0.49373,-1.04522 -0.74059,-1.56783 -0.19434,-0.39131 -0.38867,-0.78261 -0.58301,-1.17391 -0.33879,-0.57777 -0.67756,-1.15552 -1.01633,-1.73328 -0.25737,-0.41494 -0.51474,-0.82987 -0.7721,-1.24481 -0.4202,-0.69333 -0.84038,-1.386626 -1.26057,-2.07994 -0.26788,-0.422822 -0.53574,-0.845632 -0.80361,-1.268447 -0.23636,-0.391308 -0.47272,-0.782603 -0.70907,-1.173903 -0.21535,-0.37818 -0.4307,-0.756343 -0.64605,-1.134512 -0.18121,-0.328279 -0.36241,-0.656548 -0.54362,-0.984819 -0.13656,-0.262625 -0.27312,-0.525238 -0.40968,-0.787855 -0.23636,-0.488482 -0.47271,-0.976942 -0.70907,-1.465413 -0.20222,-0.488479 -0.40443,-0.97694 -0.60665,-1.465411 -0.18909,-0.527873 -0.37817,-1.055725 -0.56725,-1.583589 -0.084,-0.294138 -0.16808,-0.588264 -0.25212,-0.882396 -0.0552,-0.191717 -0.1103,-0.383424 -0.16545,-0.575136 -0.0446,-0.1602 -0.0893,-0.320394 -0.13393,-0.480592 -0.0447,-0.141816 -0.0893,-0.283628 -0.13394,-0.425442 -0.0762,-0.15232 -0.15232,-0.304636 -0.22848,-0.456956 -0.0964,-0.125135 -0.19279,-0.250307 -0.28919,-0.375467 -0.10237,-0.09744 -0.20473,-0.194857 -0.30711,-0.292298 -0.12033,-0.09007 -0.24064,-0.180114 -0.36097,-0.270178 -0.151,-0.07078 -0.30199,-0.14155 -0.45299,-0.212325 -0.11293,-0.03151 -0.22585,-0.06303 -0.33877,-0.09454 -0.16339,-0.009 -0.32677,-0.01803 -0.49015,-0.02704 -0.0833,0.0053 -0.1667,0.0106 -0.25005,0.0159 0.0576,-0.0046 0.11514,-0.0093 0.17272,-0.0139 0.0158,-0.0019 0.0316,-0.0037 0.0473,-0.0056 z"
       sodipodi:nodetypes="scccccccccccccccccccccccccccccccccccccccccccccccccccccccsccccccccccccccccccccccccccccccccccccccccccccccccccccccccccccccccccccccccccccccccccccccccccccccccccccccccccccccccsssss"
       transform="translate(-47.369945,-46.766926)" /></g></svg>
